<?xml version="1.0" standalone="no"?>
<!DOCTYPE svg PUBLIC "-//W3C//DTD SVG 20010904//EN"
 "http://www.w3.org/TR/2001/REC-SVG-20010904/DTD/svg10.dtd">
<svg version="1.0" xmlns="http://www.w3.org/2000/svg"
 width="512.000000pt" height="512.000000pt" viewBox="0 0 512.000000 512.000000"
 preserveAspectRatio="xMidYMid meet">

<g transform="translate(0.000000,512.000000) scale(0.100000,-0.100000)"
fill="#000000" stroke="none">
<path d="M3437 3944 c-3 -4 1 -20 10 -38 l16 -31 -36 28 c-45 34 -61 35 -55 2
3 -14 1 -28 -3 -31 -15 -9 -10 -22 23 -60 18 -21 55 -47 81 -60 27 -12 43 -24
36 -26 -18 -6 -2 -28 20 -28 10 0 30 -11 45 -25 15 -14 35 -25 44 -25 9 0 30
-7 46 -15 15 -8 41 -15 56 -15 16 0 30 -7 34 -15 3 -8 14 -15 24 -15 10 0 22
-4 27 -9 6 -5 30 -11 55 -13 25 -2 52 -8 60 -13 8 -5 25 -8 37 -6 13 1 30 -5
39 -13 8 -9 25 -16 37 -16 37 0 50 -15 43 -45 -5 -20 -2 -31 10 -40 22 -15 10
-35 -21 -35 -25 0 -45 -25 -45 -55 0 -11 6 -14 24 -9 19 4 26 1 31 -15 7 -23
21 -28 28 -8 3 10 9 10 26 0 28 -17 42 -16 35 2 -4 9 0 15 10 15 9 0 16 6 17
13 0 6 5 2 11 -10 14 -30 26 -29 40 2 13 29 23 32 32 9 5 -13 9 -14 21 -4 20
17 19 57 -2 70 -17 10 -16 10 2 9 34 -2 36 0 20 31 -17 32 -14 36 16 20 11 -6
25 -8 32 -3 6 4 24 6 39 4 16 -1 28 2 28 8 0 5 15 11 33 13 20 2 32 8 32 18 0
14 56 48 80 50 6 0 37 14 70 30 33 17 67 30 77 30 65 0 212 92 206 129 -1 9 7
30 20 48 27 38 28 47 3 40 -18 -4 -18 -3 1 30 11 18 18 37 14 40 -3 4 -43 -13
-88 -37 l-81 -43 42 42 c35 35 51 61 37 61 -2 0 -36 -15 -77 -34 -104 -47
-117 -51 -115 -29 1 22 1 22 -154 -23 -80 -23 -161 -39 -225 -44 -55 -4 -108
-11 -118 -15 -16 -7 -18 -4 -15 16 2 20 8 24 36 22 30 -1 33 1 30 25 -2 22
-12 30 -56 46 -72 26 -121 12 -158 -44 -15 -22 -34 -40 -43 -40 -37 1 -192 40
-251 64 -76 31 -90 32 -90 6 0 -18 -8 -16 -90 25 -92 46 -102 50 -113 39z
m242 -140 c-7 -8 -6 -15 1 -19 6 -4 9 -13 6 -20 -3 -8 4 -17 15 -20 10 -4 17
-11 13 -16 -3 -6 3 -13 15 -16 12 -3 21 -9 21 -14 0 -5 11 -9 25 -9 14 0 25
-4 25 -10 0 -5 19 -10 43 -10 31 0 38 -3 27 -10 -8 -5 -10 -10 -5 -10 13 -1
-37 -29 -52 -30 -7 0 -10 6 -7 14 4 11 -5 13 -43 8 -45 -5 -47 -4 -34 12 14
17 12 18 -25 16 -21 -1 -48 -1 -59 -1 -18 1 -18 2 4 14 45 22 35 34 -26 30
-46 -3 -53 -1 -35 7 31 13 19 30 -21 31 -36 1 -78 15 -125 44 -49 30 -38 38
16 11 44 -22 147 -56 171 -56 29 0 6 19 -36 30 -75 18 -138 49 -169 81 -31 33
-24 39 12 10 14 -11 59 -34 100 -51 93 -38 135 -35 49 4 -53 24 -125 79 -125
96 0 4 51 -19 114 -49 84 -41 112 -59 105 -67z m485 74 c51 -14 68 -28 35 -28
-61 0 -66 -57 -9 -110 32 -30 40 -44 40 -73 0 -20 5 -39 10 -42 6 -3 10 3 10
14 0 12 2 21 5 21 3 0 35 -22 71 -50 73 -56 73 -66 1 -20 -48 30 -63 28 -27
-5 32 -29 16 -29 -30 0 -45 28 -64 27 -37 -3 9 -10 26 -45 37 -77 l20 -59 -22
21 c-13 11 -28 19 -34 16 -6 -2 -16 14 -23 36 -17 58 -55 99 -99 107 -58 10
-102 62 -102 119 l0 27 -32 -28 c-39 -32 -88 -54 -120 -54 -21 0 -20 2 9 21
18 12 30 25 27 30 -3 5 -15 3 -27 -5 -12 -8 -33 -17 -47 -21 -23 -6 -22 -4 8
20 47 38 39 50 -13 20 -54 -32 -84 -28 -32 4 20 12 37 26 37 31 0 4 -24 15
-52 25 -52 17 -113 53 -105 62 3 2 22 -4 44 -15 47 -24 124 -46 226 -65 l78
-15 19 39 c18 34 58 67 84 69 5 0 27 -5 50 -12z m631 -18 c-10 -17 -87 -58
-140 -74 -34 -11 -59 -13 -80 -8 -29 9 -28 9 30 26 33 9 89 28 125 41 77 28
73 27 65 15z m124 -6 c-28 -34 -106 -79 -183 -106 -45 -15 -82 -32 -85 -39 -2
-7 4 -9 15 -6 11 3 39 11 64 17 25 7 74 25 109 41 35 16 66 27 68 25 9 -9 -97
-68 -157 -87 -88 -28 -235 -38 -243 -17 -4 12 4 17 34 22 25 4 39 12 39 21 0
9 10 15 26 15 14 0 38 6 52 14 15 8 61 26 102 40 41 15 93 37 115 50 47 29 62
32 44 10z m-270 -9 c-8 -8 -61 -26 -117 -38 -107 -24 -149 -44 -70 -34 50 7
78 1 78 -15 0 -6 -7 -8 -15 -5 -21 9 -28 -10 -8 -22 14 -8 6 -10 -34 -11 -56
0 -67 -10 -30 -28 21 -10 21 -11 -8 -11 -16 -1 -43 6 -59 14 -41 22 -54 18
-29 -7 12 -12 60 -35 105 -50 67 -23 75 -28 41 -24 -23 2 -77 21 -120 42 -43
22 -81 41 -85 42 -5 2 -8 -1 -8 -6 0 -6 34 -29 75 -52 41 -23 75 -43 75 -46 0
-2 -12 -4 -27 -4 -37 0 -150 85 -185 138 l-26 41 44 7 c24 3 56 4 71 1 23 -4
241 47 303 72 37 14 46 13 29 -4z m-885 -51 c23 -9 1 -34 -28 -33 -11 0 -15 3
-8 6 17 7 15 21 -5 26 -14 4 -13 5 4 6 12 0 29 -2 37 -5z m1115 -80 c-36 -44
-167 -85 -262 -83 -107 3 -116 15 -16 22 89 6 230 41 269 67 22 14 24 12 9 -6z
m-889 -9 c0 -13 -48 -46 -67 -45 -7 1 57 60 64 60 2 0 3 -7 3 -15z m19 -28
c-2 -1 -13 -9 -24 -17 -19 -14 -19 -14 -6 3 7 9 18 17 24 17 6 0 8 -1 6 -3z
m32 -39 c26 -29 48 -79 43 -93 -3 -6 -18 -10 -34 -7 -32 5 -39 16 -15 26 8 3
15 11 15 17 0 11 -20 9 -75 -8 -18 -5 -18 -4 -6 11 18 21 8 31 -17 17 -12 -6
-26 -11 -33 -11 -10 0 82 64 99 69 2 1 13 -9 23 -21z m-81 7 c0 -9 -75 -43
-110 -49 l-35 -7 42 25 c24 13 55 27 70 29 16 2 29 5 31 6 1 0 2 -1 2 -4z
m184 -57 c22 -20 24 -29 19 -71 -4 -37 -8 -45 -18 -37 -9 8 -14 7 -17 -1 -3
-8 -9 -9 -17 -5 -8 6 -11 23 -9 50 3 22 1 51 -3 64 -6 16 -5 22 6 22 7 0 25
-10 39 -22z m471 12 c-9 -15 -84 -32 -108 -24 -18 6 -14 9 28 20 64 15 88 16
80 4z m-125 -40 c12 -8 10 -10 -10 -10 -14 0 -32 5 -40 10 -12 8 -10 10 10 10
14 0 32 -5 40 -10z m-136 -19 c-2 -2 6 -16 18 -30 l23 -25 -27 17 c-30 19 -53
22 -43 7 10 -16 -12 -12 -29 6 -24 24 -20 29 23 29 22 0 38 -2 35 -4z m109
-28 c-7 -3 -30 1 -50 8 -32 10 -35 13 -18 19 12 4 32 1 50 -8 17 -8 24 -17 18
-19z m-260 -55 c2 -34 -2 -43 -17 -46 -14 -3 -17 0 -12 13 3 9 6 38 6 63 1 37
3 43 11 29 6 -9 11 -36 12 -59z m-43 -87 c0 -24 -11 -33 -26 -20 -8 7 -14 7
-19 -1 -10 -16 -25 -12 -18 7 5 13 2 15 -15 11 -12 -4 -24 -3 -27 2 -2 4 9 10
26 14 22 4 34 14 42 36 l11 29 13 -31 c7 -16 13 -38 13 -47z m100 60 c0 -10 7
-24 15 -31 22 -19 18 -32 -6 -20 -11 7 -22 10 -23 8 -2 -2 -8 -12 -14 -23 -10
-18 -11 -18 -12 -2 0 14 -5 17 -20 12 -11 -3 -20 -2 -20 4 0 5 14 12 30 16 23
5 30 12 30 31 0 13 5 24 10 24 6 0 10 -8 10 -19z"/>
<path d="M3270 1992 l0 -1099 458 -6 c251 -4 528 -7 615 -7 l157 0 0 1105 0
1105 -615 0 -615 0 0 -1098z"/>
</g>
</svg>
